<?xml version="1.0" encoding="utf-8"?>
<!-- Generator: Adobe Illustrator 19.2.0, SVG Export Plug-In . SVG Version: 6.00 Build 0)  -->
<svg version="1.1" id="Layer_1" xmlns="http://www.w3.org/2000/svg" xmlns:xlink="http://www.w3.org/1999/xlink" x="0px" y="0px"
	 viewBox="0 0 16 16" style="enable-background:new 0 0 16 16;" xml:space="preserve">
<style type="text/css">
	.st0{fill:#FFFFFF;}
</style>
<path class="st0" d="M8,0C3.6,0,0,3.6,0,8s3.6,8,8,8s8-3.6,8-8S12.4,0,8,0z M15.7,8c0,0.3,0,0.5,0,0.8l-1.4-0.2c0-0.2,0-0.4,0-0.6
	c0-0.2,0-0.4,0-0.6l1.4-0.2C15.7,7.5,15.7,7.7,15.7,8z M0.3,8c0-0.3,0-0.5,0-0.8l1.4,0.2c0,0.2,0,0.4,0,0.6s0,0.4,0,0.6L0.4,8.8
	C0.3,8.5,0.3,8.3,0.3,8z M14,5.9l1.3-0.5c0.2,0.5,0.3,1,0.4,1.5l-1.4,0.2C14.2,6.7,14.1,6.3,14,5.9z M14,8c0,0.4,0,0.8-0.1,1.2
	l-1.3-0.3c0-0.3,0.1-0.6,0.1-0.9s0-0.6-0.1-0.9l1.3-0.3C14,7.2,14,7.6,14,8z M8,12.3c-2.4,0-4.3-1.9-4.3-4.3c0-2.4,1.9-4.3,4.3-4.3
	c2.4,0,4.3,1.9,4.3,4.3C12.3,10.4,10.4,12.3,8,12.3C8,12.3,8,12.3,8,12.3z M8.1,14v-1.4c0.6,0,1.2-0.1,1.7-0.4l0.6,1.2
	C9.7,13.8,8.9,14,8.1,14z M5.5,13.5l0.6-1.2c0.5,0.2,1.1,0.4,1.7,0.4V14C7,14,6.2,13.8,5.5,13.5z M2,8c0-0.4,0-0.8,0.1-1.2l1.3,0.3
	C3.4,7.4,3.4,7.7,3.4,8c0,0.3,0,0.6,0.1,0.8L2.1,9.2C2,8.8,2,8.4,2,8z M7.8,2v1.4c-0.6,0-1.2,0.1-1.7,0.4L5.6,2.5
	C6.3,2.2,7.1,2,7.8,2z M10.5,2.5L9.9,3.8C9.3,3.5,8.7,3.4,8.1,3.4V2C9,2,9.8,2.2,10.5,2.5z M13.9,5.6c-0.2-0.4-0.3-0.7-0.6-1.1
	l1.1-0.8c0.3,0.4,0.5,0.9,0.7,1.4L13.9,5.6z M13.8,6.5l-1.3,0.3c-0.2-0.6-0.4-1.1-0.8-1.6l1.1-0.9C13.3,5,13.6,5.7,13.8,6.5z
	 M11.5,5c-0.4-0.4-0.8-0.8-1.4-1.1l0.6-1.2c0.7,0.4,1.3,0.9,1.8,1.5L11.5,5z M11.1,2.5l0.6-1.2c0.4,0.3,0.9,0.5,1.3,0.9l-0.9,1
	C11.8,2.9,11.5,2.7,11.1,2.5z M10.8,2.4C10.5,2.2,10.1,2,9.7,1.9L10,0.6c0.5,0.1,1,0.3,1.4,0.6L10.8,2.4z M9.4,1.8
	C9,1.7,8.6,1.7,8.2,1.7V0.3c0.5,0,1.1,0.1,1.6,0.2C9.7,0.5,9.4,1.8,9.4,1.8z M7.9,1.7c-0.4,0-0.8,0.1-1.2,0.1L6.4,0.5
	c0.5-0.1,1-0.2,1.5-0.2C7.9,0.3,7.9,1.7,7.9,1.7z M6.4,1.9C6,2,5.6,2.2,5.2,2.3L4.6,1.1C5,0.9,5.5,0.7,6,0.6L6.4,1.9z M4.9,2.5
	C4.6,2.7,4.3,2.9,4,3.2L3,2.1c0.4-0.3,0.8-0.6,1.3-0.9C4.3,1.3,4.9,2.5,4.9,2.5z M5.3,2.7l0.6,1.2C5.3,4.2,4.9,4.5,4.5,5L3.4,4.1
	C3.9,3.5,4.6,3,5.3,2.7z M3.2,4.4l1.1,0.9C4,5.7,3.7,6.2,3.5,6.8L2.2,6.5C2.4,5.7,2.8,5,3.2,4.4z M2.2,5.6L0.9,5.1
	c0.2-0.5,0.4-0.9,0.7-1.4l1.1,0.8C2.5,4.9,2.3,5.2,2.2,5.6z M2,5.9C1.9,6.3,1.8,6.7,1.8,7.1L0.4,6.9c0.1-0.5,0.2-1,0.4-1.5
	C0.8,5.4,2,5.9,2,5.9z M1.7,8.9C1.8,9.3,1.9,9.7,2,10.1l-1.3,0.5c-0.2-0.5-0.3-1-0.4-1.5L1.7,8.9z M2.2,10.4
	c0.2,0.4,0.4,0.7,0.6,1.1l-1.1,0.8c-0.3-0.4-0.5-0.9-0.7-1.3C0.9,10.9,2.2,10.4,2.2,10.4z M2.2,9.5l1.3-0.3c0.1,0.6,0.4,1.1,0.8,1.6
	l-1.1,0.9C2.7,11,2.4,10.2,2.2,9.5z M4.5,11c0.4,0.4,0.8,0.8,1.4,1.1l-0.6,1.2c-0.7-0.4-1.3-0.9-1.9-1.5C3.4,11.8,4.5,11,4.5,11z
	 M4.9,13.5l-0.6,1.2c-0.4-0.3-0.9-0.5-1.3-0.9l0.9-1C4.3,13.1,4.6,13.3,4.9,13.5z M5.2,13.7C5.6,13.8,6,14,6.4,14.1L6,15.4
	c-0.5-0.1-1-0.3-1.4-0.5C4.6,14.9,5.2,13.7,5.2,13.7z M6.7,14.2c0.4,0.1,0.8,0.1,1.2,0.1v1.4c-0.5,0-1-0.1-1.5-0.2
	C6.3,15.5,6.7,14.2,6.7,14.2z M8.2,14.3c0.4,0,0.8-0.1,1.2-0.1l0.3,1.3c-0.5,0.1-1,0.2-1.5,0.2V14.3z M9.7,14.1
	c0.4-0.1,0.8-0.3,1.1-0.4l0.6,1.2c-0.5,0.2-0.9,0.4-1.4,0.5C10,15.4,9.7,14.1,9.7,14.1z M11.1,13.5c0.4-0.2,0.7-0.4,1-0.7l0.9,1
	c-0.4,0.3-0.8,0.6-1.3,0.9C11.7,14.7,11.1,13.5,11.1,13.5z M10.8,13.3l-0.6-1.2c0.5-0.3,1-0.7,1.4-1.1l1.1,0.9
	C12.1,12.5,11.5,13,10.8,13.3z M12.8,11.6l-1.1-0.9c0.4-0.5,0.6-1,0.8-1.6l1.3,0.3C13.6,10.2,13.3,11,12.8,11.6z M13.8,10.4l1.3,0.5
	c-0.2,0.5-0.4,0.9-0.7,1.4l-1.1-0.8C13.5,11.1,13.7,10.8,13.8,10.4z M14,10.1c0.1-0.4,0.2-0.8,0.3-1.2l1.4,0.2
	c-0.1,0.5-0.2,1-0.4,1.5L14,10.1z M14.3,3.5l-1.1,0.8c-0.2-0.3-0.5-0.6-0.8-0.9l0.9-1C13.6,2.7,14,3.1,14.3,3.5z M2.8,2.4l0.9,1
	C3.4,3.6,3.2,4,2.9,4.3L1.8,3.5C2.1,3.1,2.4,2.7,2.8,2.4z M1.8,12.5l1.1-0.8c0.2,0.3,0.5,0.6,0.8,0.9l-0.9,1
	C2.4,13.3,2.1,12.9,1.8,12.5z M13.2,13.6l-0.9-1c0.3-0.3,0.6-0.6,0.8-0.9l1.1,0.8C13.9,12.9,13.6,13.3,13.2,13.6z"/>
</svg>
